<?xml version="1.0" encoding="UTF-8" standalone="no"?>
<svg
   width="91.44mm"
   height="128.5mm"
   viewBox="0 0 91.44 128.5"
   version="1.1"
   id="svg22"
   xmlns="http://www.w3.org/2000/svg"
   xmlns:svg="http://www.w3.org/2000/svg">
  <defs
     id="defs22" />
  <!-- Panel background -->
  <rect
     width="91.44"
     height="128.5"
     fill="#1a1a2e"
     id="rect1" />
  <!-- Geometric pattern: shockwave arcs from bottom-left -->
  <g opacity="0.15">
    <!-- Concentric shockwave rings -->
    <circle cx="0" cy="128.5" r="20" fill="none" stroke="#ffffff" stroke-width="0.4"/>
    <circle cx="0" cy="128.5" r="35" fill="none" stroke="#ffffff" stroke-width="0.35"/>
    <circle cx="0" cy="128.5" r="52" fill="none" stroke="#ffffff" stroke-width="0.3"/>
    <circle cx="0" cy="128.5" r="70" fill="none" stroke="#ffffff" stroke-width="0.25"/>
    <circle cx="0" cy="128.5" r="90" fill="none" stroke="#ffffff" stroke-width="0.2"/>
    <circle cx="0" cy="128.5" r="112" fill="none" stroke="#ffffff" stroke-width="0.18"/>
    <circle cx="0" cy="128.5" r="136" fill="none" stroke="#ffffff" stroke-width="0.15"/>
    <circle cx="0" cy="128.5" r="162" fill="none" stroke="#ffffff" stroke-width="0.12"/>
    <!-- Radial spokes -->
    <line x1="0" y1="128.5" x2="91.44" y2="0" stroke="#ffffff" stroke-width="0.2"/>
    <line x1="0" y1="128.5" x2="91.44" y2="40" stroke="#ffffff" stroke-width="0.15"/>
    <line x1="0" y1="128.5" x2="70" y2="0" stroke="#ffffff" stroke-width="0.15"/>
    <line x1="0" y1="128.5" x2="91.44" y2="80" stroke="#ffffff" stroke-width="0.12"/>
    <line x1="0" y1="128.5" x2="45" y2="0" stroke="#ffffff" stroke-width="0.12"/>
    <!-- Scattered triangles along diagonal -->
    <polygon points="30,95 40,82 20,82" fill="none" stroke="#ffffff" stroke-width="0.25"/>
    <polygon points="50,65 62,50 38,50" fill="none" stroke="#ffffff" stroke-width="0.2"/>
    <polygon points="70,35 80,22 60,22" fill="none" stroke="#ffffff" stroke-width="0.18"/>
    <!-- Secondary interference arcs from top-right -->
    <circle cx="91.44" cy="0" r="40" fill="none" stroke="#ffffff" stroke-width="0.15"/>
    <circle cx="91.44" cy="0" r="65" fill="none" stroke="#ffffff" stroke-width="0.12"/>
    <circle cx="91.44" cy="0" r="95" fill="none" stroke="#ffffff" stroke-width="0.1"/>
    <circle cx="91.44" cy="0" r="130" fill="none" stroke="#ffffff" stroke-width="0.08"/>
  </g>
  <rect
     x="0.3"
     y="0.3"
     width="90.84"
     height="127.9"
     rx="0.5"
     fill="none"
     stroke="#303060"
     stroke-width="0.3"
     id="rect2" />
  <!-- Title -->
  <g transform="translate(46.7, 6.0) scale(1.3) translate(-46.7, -6.0)">
  <path
     d="m 31.739491,6.8835 v 0.242 q 0,0.1815 -0.0715,0.3465 -0.066,0.1595 -0.187,0.286 -0.121,0.1265 -0.286,0.2035 -0.1595,0.0715 -0.3465,0.0715 -0.1595,0 -0.3245,-0.044 -0.165,-0.044 -0.297,-0.154 -0.132,-0.11 -0.22,-0.2805 -0.0825,-0.176 -0.0825,-0.4455 V 4.953 q 0,-0.1925 0.066,-0.3575 0.066,-0.165 0.187,-0.286 0.121,-0.121 0.286,-0.187 0.1705,-0.0715 0.374,-0.0715 0.396,0 0.6435,0.2585 0.121,0.1265 0.187,0.3025 0.0715,0.1705 0.0715,0.374 v 0.22 h -0.561 V 5.019 q 0,-0.165 -0.0935,-0.286 -0.0935,-0.121 -0.253,-0.121 -0.209,0 -0.2805,0.132 -0.066,0.1265 -0.066,0.3245 v 2.002 q 0,0.1705 0.0715,0.286 0.077,0.1155 0.2695,0.1155 0.055,0 0.1155,-0.0165 0.066,-0.022 0.121,-0.066 0.0495,-0.044 0.0825,-0.121 0.033,-0.077 0.033,-0.1925 V 6.8835 Z M 33.662989,5.008 q 0,-0.2365 0.0825,-0.418 0.0825,-0.1815 0.22,-0.3025 0.132,-0.1155 0.297,-0.176 0.1705,-0.0605 0.341,-0.0605 0.1705,0 0.3355,0.0605 0.1705,0.0605 0.308,0.176 0.132,0.121 0.2145,0.3025 0.0825,0.1815 0.0825,0.418 v 2.068 q 0,0.2475 -0.0825,0.4235 -0.0825,0.176 -0.2145,0.2915 -0.1375,0.121 -0.308,0.1815 -0.165,0.0605 -0.3355,0.0605 -0.1705,0 -0.341,-0.0605 -0.165,-0.0605 -0.297,-0.1815 -0.1375,-0.1155 -0.22,-0.2915 -0.0825,-0.176 -0.0825,-0.4235 z m 0.561,2.068 q 0,0.2035 0.11,0.3025 0.1155,0.0935 0.2695,0.0935 0.154,0 0.264,-0.0935 0.1155,-0.099 0.1155,-0.3025 V 5.008 q 0,-0.2035 -0.1155,-0.297 -0.11,-0.099 -0.264,-0.099 -0.154,0 -0.2695,0.099 -0.11,0.0935 -0.11,0.297 z m 3.876003,-2.464 v 1.221 h 0.319 q 0.1485,0 0.2365,-0.0385 0.088,-0.044 0.1375,-0.121 0.044,-0.077 0.0605,-0.187 0.0165,-0.1155 0.0165,-0.264 0,-0.1485 -0.0165,-0.2585 -0.0165,-0.1155 -0.066,-0.198 -0.1045,-0.154 -0.396,-0.154 z M 37.538992,8 V 4.084 h 0.902 q 0.99,0 0.99,1.1495 0,0.3465 -0.11,0.5885 -0.1045,0.242 -0.374,0.3905 L 39.551992,8 h -0.594 l -0.5225,-1.672 h -0.3355 V 8 Z m 4.404003,-3.388 v 1.221 h 0.319 q 0.1485,0 0.2365,-0.0385 0.088,-0.044 0.1375,-0.121 0.044,-0.077 0.0605,-0.187 0.0165,-0.1155 0.0165,-0.264 0,-0.1485 -0.0165,-0.2585 -0.0165,-0.1155 -0.066,-0.198 -0.1045,-0.154 -0.396,-0.154 z M 41.381995,8 V 4.084 h 0.902 q 0.99,0 0.99,1.1495 0,0.3465 -0.11,0.5885 -0.1045,0.242 -0.374,0.3905 L 43.394995,8 h -0.594 l -0.5225,-1.672 h -0.3355 V 8 Z M 47.039999,4.084 V 7.12 q 0,0.1925 -0.0715,0.3575 -0.066,0.1595 -0.1925,0.286 -0.1265,0.1265 -0.2915,0.198 -0.165,0.0715 -0.352,0.0715 -0.187,0 -0.352,-0.0715 -0.1595,-0.0715 -0.286,-0.198 -0.1265,-0.1265 -0.198,-0.286 -0.0715,-0.165 -0.0715,-0.3575 V 4.084 h 0.561 v 2.981 q 0,0.209 0.099,0.308 0.099,0.099 0.2475,0.099 0.1485,0 0.2475,-0.099 0.099,-0.099 0.099,-0.308 V 4.084 Z M 53.175,8 V 4.612 H 52.526 V 4.084 h 1.859 V 4.612 H 53.736 V 8 Z m 2.957504,0 V 4.084 h 1.672 v 0.528 h -1.111 v 1.1495 h 0.968 v 0.528 h -0.968 V 7.439 h 1.111 V 8 Z m 4.096005,-3.388 v 1.221 h 0.319 q 0.1485,0 0.2365,-0.0385 0.088,-0.044 0.1375,-0.121 0.044,-0.077 0.0605,-0.187 0.0165,-0.1155 0.0165,-0.264 0,-0.1485 -0.0165,-0.2585 -0.0165,-0.1155 -0.066,-0.198 -0.1045,-0.154 -0.396,-0.154 z M 59.667509,8 V 4.084 h 0.902 q 0.99,0 0.99,1.1495 0,0.3465 -0.11,0.5885 -0.1045,0.242 -0.374,0.3905 L 61.680509,8 h -0.594 l -0.5225,-1.672 h -0.3355 V 8 Z"
     id="text2"
     style="font-weight:bold;font-size:5.5px;font-family:'DIN Condensed';letter-spacing:1.5;text-anchor:middle;fill:#c0c8e8"
     aria-label="CORRUPTER" />
  <!-- Reversed P -->
  <path
     d="M 49.068003,8 V 4.084 h 0.8415 q 0.231,0 0.407,0.0605 0.176,0.0605 0.319,0.2145 0.143,0.154 0.198,0.363 0.055,0.2035 0.055,0.5555 0,0.264 -0.033,0.4455 -0.0275,0.1815 -0.1265,0.341 -0.1155,0.1925 -0.308,0.3025 -0.1925,0.1045 -0.506,0.1045 h -0.286 V 8 Z m 0.561,-3.388 v 1.331 h 0.2695 q 0.1705,0 0.264,-0.0495 0.0935,-0.0495 0.1375,-0.1375 0.044,-0.0825 0.0495,-0.2035 0.011,-0.121 0.011,-0.2695 0,-0.1375 -0.0055,-0.2585 -0.0055,-0.1265 -0.0495,-0.22 -0.044,-0.0935 -0.132,-0.143 -0.088,-0.0495 -0.253,-0.0495 z"
     transform="translate(99.456, 0) scale(-1, 1)"
     style="font-weight:bold;font-size:5.5px;font-family:'DIN Condensed';letter-spacing:1.5;text-anchor:middle;fill:#c0c8e8" />
  </g>
  <!-- Accent line under title -->
  <line
     x1="8"
     y1="10"
     x2="83.44"
     y2="10"
     stroke="#4050a0"
     stroke-width="0.25"
     id="line2" />
  <!-- Separator before display -->
  <line
     x1="8"
     y1="80"
     x2="83.44"
     y2="80"
     stroke="#303060"
     stroke-width="0.15"
     id="line12" />
  <!-- Display cutout (origin 7,82, height 13) -->
  <rect
     x="7"
     y="81.3"
     rx="1"
     ry="1"
     width="77.44"
     height="13"
     fill="#050e15"
     stroke="#303060"
     stroke-width="0.3"
     id="rect12" />
  <!-- Separator before bottom settings -->
  <line
     x1="8"
     y1="113"
     x2="83.44"
     y2="113"
     stroke="#303060"
     stroke-width="0.15"
     id="line16" />
  <!-- Brand -->
  <g transform="translate(45.7, 124.5) scale(1.3) translate(-45.7, -124.5)">
  <path
     d="m 35.516996,123 v -1.424 h 0.196 l 0.308,0.858 h 0.004 v -0.858 h 0.204 V 123 h -0.192 l -0.312,-0.856 h -0.004 V 123 Z m 1.684,-1.088 q 0,-0.086 0.03,-0.152 0.03,-0.066 0.08,-0.11 0.048,-0.042 0.108,-0.064 0.062,-0.022 0.124,-0.022 0.062,0 0.122,0.022 0.062,0.022 0.112,0.064 0.048,0.044 0.078,0.11 0.03,0.066 0.03,0.152 v 0.752 q 0,0.09 -0.03,0.154 -0.03,0.064 -0.078,0.106 -0.05,0.044 -0.112,0.066 -0.06,0.022 -0.122,0.022 -0.062,0 -0.124,-0.022 -0.06,-0.022 -0.108,-0.066 -0.05,-0.042 -0.08,-0.106 -0.03,-0.064 -0.03,-0.154 z m 0.204,0.752 q 0,0.074 0.04,0.11 0.042,0.034 0.098,0.034 0.056,0 0.096,-0.034 0.042,-0.036 0.042,-0.11 v -0.752 q 0,-0.074 -0.042,-0.108 -0.04,-0.036 -0.096,-0.036 -0.056,0 -0.098,0.036 -0.04,0.034 -0.04,0.108 z m 3.292003,-0.678 h -0.204 v -0.046 q 0,-0.07 -0.034,-0.12 -0.032,-0.052 -0.11,-0.052 -0.042,0 -0.068,0.016 -0.026,0.016 -0.042,0.04 -0.016,0.026 -0.022,0.06 -0.006,0.032 -0.006,0.068 0,0.042 0.002,0.07 0.004,0.028 0.016,0.05 0.012,0.022 0.034,0.038 0.024,0.016 0.064,0.032 l 0.156,0.062 q 0.068,0.026 0.11,0.062 0.042,0.034 0.066,0.08 0.022,0.048 0.03,0.11 0.008,0.06 0.008,0.138 0,0.09 -0.018,0.168 -0.018,0.076 -0.058,0.13 -0.042,0.056 -0.11,0.088 -0.068,0.032 -0.166,0.032 -0.074,0 -0.138,-0.026 -0.064,-0.026 -0.11,-0.072 -0.046,-0.046 -0.074,-0.106 -0.026,-0.062 -0.026,-0.134 v -0.076 h 0.204 v 0.064 q 0,0.056 0.032,0.102 0.034,0.044 0.112,0.044 0.052,0 0.08,-0.014 0.03,-0.016 0.046,-0.044 0.016,-0.028 0.018,-0.066 0.004,-0.04 0.004,-0.088 0,-0.056 -0.004,-0.092 -0.004,-0.036 -0.016,-0.058 -0.014,-0.022 -0.038,-0.036 -0.022,-0.014 -0.06,-0.03 l -0.146,-0.06 q -0.132,-0.054 -0.178,-0.142 -0.044,-0.09 -0.044,-0.224 0,-0.08 0.022,-0.152 0.022,-0.072 0.066,-0.124 0.042,-0.052 0.106,-0.082 0.066,-0.032 0.156,-0.032 0.076,0 0.138,0.028 0.064,0.028 0.11,0.074 0.092,0.096 0.092,0.22 z m 1.612,-0.41 v 1.104 q 0,0.07 -0.026,0.13 -0.024,0.058 -0.07,0.104 -0.046,0.046 -0.106,0.072 -0.06,0.026 -0.128,0.026 -0.068,0 -0.128,-0.026 -0.058,-0.026 -0.104,-0.072 -0.046,-0.046 -0.072,-0.104 -0.026,-0.06 -0.026,-0.13 v -1.104 h 0.204 v 1.084 q 0,0.076 0.036,0.112 0.036,0.036 0.09,0.036 0.054,0 0.09,-0.036 0.036,-0.036 0.036,-0.112 v -1.084 z m 1.640002,1.018 v 0.088 q 0,0.066 -0.026,0.126 -0.024,0.058 -0.068,0.104 -0.044,0.046 -0.104,0.074 -0.058,0.026 -0.126,0.026 -0.058,0 -0.118,-0.016 -0.06,-0.016 -0.108,-0.056 -0.048,-0.04 -0.08,-0.102 -0.03,-0.064 -0.03,-0.162 v -0.784 q 0,-0.07 0.024,-0.13 0.024,-0.06 0.068,-0.104 0.044,-0.044 0.104,-0.068 0.062,-0.026 0.136,-0.026 0.144,0 0.234,0.094 0.044,0.046 0.068,0.11 0.026,0.062 0.026,0.136 v 0.08 h -0.204 v -0.068 q 0,-0.06 -0.034,-0.104 -0.034,-0.044 -0.092,-0.044 -0.076,0 -0.102,0.048 -0.024,0.046 -0.024,0.118 v 0.728 q 0,0.062 0.026,0.104 0.028,0.042 0.098,0.042 0.02,0 0.042,-0.006 0.024,-0.008 0.044,-0.024 0.018,-0.016 0.03,-0.044 0.012,-0.028 0.012,-0.07 v -0.07 z M 44.915,123 v -1.424 h 0.204 v 0.61 h 0.252 v -0.61 h 0.204 V 123 h -0.204 v -0.634 H 45.119 V 123 Z m 2.824002,0 v -1.424 h 0.302 q 0.176,0 0.266,0.096 0.092,0.096 0.092,0.272 v 0.666 q 0,0.2 -0.098,0.296 -0.096,0.094 -0.278,0.094 z m 0.204,-1.232 v 1.04 h 0.094 q 0.086,0 0.122,-0.042 0.036,-0.044 0.036,-0.136 v -0.686 q 0,-0.084 -0.034,-0.13 -0.034,-0.046 -0.124,-0.046 z M 49.391004,123 v -1.424 h 0.608 v 0.192 h -0.404 v 0.418 h 0.352 v 0.192 h -0.352 v 0.418 h 0.404 V 123 Z m 2.232001,-1.424 -0.292,1.424 h -0.18 l -0.29,-1.424 h 0.216 l 0.162,0.994 h 0.004 l 0.164,-0.994 z M 52.551004,123 v -1.424 h 0.204 V 123 Z m 1.850002,-0.406 v 0.088 q 0,0.066 -0.026,0.126 -0.024,0.058 -0.068,0.104 -0.044,0.046 -0.104,0.074 -0.058,0.026 -0.126,0.026 -0.058,0 -0.118,-0.016 -0.06,-0.016 -0.108,-0.056 -0.048,-0.04 -0.08,-0.102 -0.03,-0.064 -0.03,-0.162 v -0.784 q 0,-0.07 0.024,-0.13 0.024,-0.06 0.068,-0.104 0.044,-0.044 0.104,-0.068 0.062,-0.026 0.136,-0.026 0.144,0 0.234,0.094 0.044,0.046 0.068,0.11 0.026,0.062 0.026,0.136 v 0.08 h -0.204 v -0.068 q 0,-0.06 -0.034,-0.104 -0.034,-0.044 -0.092,-0.044 -0.076,0 -0.102,0.048 -0.024,0.046 -0.024,0.118 v 0.728 q 0,0.062 0.026,0.104 0.028,0.042 0.098,0.042 0.02,0 0.042,-0.006 0.024,-0.008 0.044,-0.024 0.018,-0.016 0.03,-0.044 0.012,-0.028 0.012,-0.07 v -0.07 z M 55.367004,123 v -1.424 h 0.608 v 0.192 h -0.404 v 0.418 h 0.352 v 0.192 h -0.352 v 0.418 h 0.404 V 123 Z"
     id="text22"
     transform="translate(0, 2)"
     style="font-weight:bold;font-size:2px;font-family:'DIN Condensed';letter-spacing:0.8;text-anchor:middle;fill:#505880"
     aria-label="NO SUCH DEVICE" />
  </g>
</svg>
