<?xml version="1.0" encoding="UTF-8" standalone="no"?>
<!-- Created with Inkscape (http://www.inkscape.org/) -->

<svg
   width="10.16mm"
   height="128.5mm"
   viewBox="0 0 10.16 128.5"
   version="1.1"
   id="svg5"
   inkscape:version="1.2.2 (b0a84865, 2022-12-01)"
   sodipodi:docname="DivTrig.svg"
   xmlns:inkscape="http://www.inkscape.org/namespaces/inkscape"
   xmlns:sodipodi="http://sodipodi.sourceforge.net/DTD/sodipodi-0.dtd"
   xmlns="http://www.w3.org/2000/svg"
   xmlns:svg="http://www.w3.org/2000/svg">
  <sodipodi:namedview
     id="namedview7"
     pagecolor="#505050"
     bordercolor="#eeeeee"
     borderopacity="1"
     inkscape:showpageshadow="0"
     inkscape:pageopacity="0"
     inkscape:pagecheckerboard="0"
     inkscape:deskcolor="#505050"
     inkscape:document-units="mm"
     showgrid="false"
     inkscape:zoom="1.6819304"
     inkscape:cx="-17.836648"
     inkscape:cy="276.17076"
     inkscape:window-width="1093"
     inkscape:window-height="723"
     inkscape:window-x="52"
     inkscape:window-y="86"
     inkscape:window-maximized="0"
     inkscape:current-layer="layer2" />
  <defs
     id="defs2">
    <rect
       x="-19.759449"
       y="430.92416"
       width="85.344004"
       height="36.996416"
       id="rect1179" />
    <rect
       x="-16.816553"
       y="427.14044"
       width="96.695177"
       height="48.768003"
       id="rect1159" />
  </defs>
  <g
     inkscape:groupmode="layer"
     id="layer3"
     inkscape:label="background">
    <rect
       style="fill:#666666;stroke-width:0.264583"
       id="rect877"
       width="12.235792"
       height="130.25558"
       x="-0.66740686"
       y="-0.55616784"
       ry="0" />
  </g>
  <g
     inkscape:label="labels"
     inkscape:groupmode="layer"
     id="layer1">
    <text
       xml:space="preserve"
       style="font-size:3.175px;fill:#f9f9f9;stroke-width:0.264583"
       x="1.8909863"
       y="117.01868"
       id="text1103"><tspan
         sodipodi:role="line"
         style="stroke-width:0.264583"
         x="1.8909863"
         y="117.01868"
         id="tspan1105" /></text>
    <text
       xml:space="preserve"
       transform="scale(0.26458333)"
       id="text1157"
       style="fill:#f9f9f9;white-space:pre;shape-inside:url(#rect1159)" />
    <text
       xml:space="preserve"
       style="font-size:3.175px;fill:#f9f9f9;stroke-width:0.264583"
       x="3.4482691"
       y="115.90633"
       id="text1167"><tspan
         sodipodi:role="line"
         id="tspan1165"
         style="stroke-width:0.264583"
         x="3.4482691"
         y="115.90633" /></text>
    <text
       xml:space="preserve"
       transform="scale(0.26458333)"
       id="text1177"
       style="fill:#f9f9f9;-inkscape-font-specification:'.New York, Normal';font-family:'.New York';font-weight:normal;font-style:normal;font-stretch:normal;font-variant:normal;font-size:12px;font-variant-ligatures:normal;font-variant-caps:normal;font-variant-numeric:normal;font-variant-east-asian:normal;white-space:pre;shape-inside:url(#rect1179)" />
    <g
       aria-label="No Such  Device"
       id="text1361"
       style="font-size:2.11667px;font-family:'Noto Sans Caucasian Albanian';-inkscape-font-specification:'Noto Sans Caucasian Albanian, Normal';fill:#f9f9f9;stroke-width:0.264583">
      <path
         d="M 2.1562264,117.70989 H 1.9030115 l -0.7296723,-1.37666 v 1.37666 H 0.98213607 v -1.53892 H 1.2994298 l 0.6655935,1.25677 v -1.25677 h 0.1912031 z"
         id="path1365" />
      <path
         d="m 3.5339222,117.13318 q 0,0.28216 -0.1446942,0.44545 -0.1446943,0.1633 -0.3875739,0.1633 -0.2449466,0 -0.3896409,-0.1633 -0.1436607,-0.16329 -0.1436607,-0.44545 0,-0.28215 0.1436607,-0.44545 0.1446943,-0.16433 0.3896409,-0.16433 0.2428796,0 0.3875739,0.16433 0.1446942,0.1633 0.1446942,0.44545 z m -0.2005049,0 q 0,-0.22427 -0.08785,-0.33279 -0.08785,-0.10956 -0.2439132,-0.10956 -0.1581301,0 -0.2459802,0.10956 -0.086817,0.10852 -0.086817,0.33279 0,0.21704 0.08785,0.3297 0.08785,0.11162 0.2449466,0.11162 0.1550296,0 0.2428796,-0.11059 0.088884,-0.11162 0.088884,-0.33073 z"
         id="path1367" />
      <path
         d="m 5.7126039,117.27064 q 0,0.0899 -0.042375,0.17777 -0.041341,0.0879 -0.1167889,0.14883 -0.082682,0.0661 -0.1932701,0.10335 -0.1095542,0.0372 -0.2645838,0.0372 -0.1663983,0 -0.2997237,-0.031 -0.1322919,-0.031 -0.2697514,-0.092 v -0.25632 h 0.014469 q 0.1167889,0.0971 0.2697514,0.14986 0.1529625,0.0527 0.2873214,0.0527 0.1901695,0 0.2955896,-0.0713 0.1064536,-0.0713 0.1064536,-0.19017 0,-0.10232 -0.050643,-0.15089 -0.04961,-0.0486 -0.151929,-0.0755 -0.077515,-0.0207 -0.1684654,-0.0341 -0.089917,-0.0134 -0.1912031,-0.0341 -0.204639,-0.0434 -0.3038579,-0.14779 -0.098185,-0.10542 -0.098185,-0.27389 0,-0.19327 0.1632978,-0.31626 0.1632978,-0.12402 0.4144456,-0.12402 0.1622643,0 0.2976567,0.031 0.1353925,0.031 0.2397791,0.0765 v 0.24184 h -0.014469 q -0.08785,-0.0744 -0.2315107,-0.12299 -0.1426272,-0.0496 -0.2924891,-0.0496 -0.1643313,0 -0.2645837,0.0682 -0.099219,0.0682 -0.099219,0.1757 0,0.0961 0.049609,0.15089 0.049609,0.0548 0.1746666,0.0837 0.066146,0.0145 0.1881025,0.0351 0.1219566,0.0207 0.2067061,0.0424 0.171566,0.0455 0.2583825,0.13746 0.086817,0.092 0.086817,0.25735 z"
         id="path1369" />
      <path
         d="M 6.9828128,117.70989 H 6.7885091 v -0.12816 q -0.098185,0.0775 -0.1881025,0.11886 -0.089917,0.0413 -0.1984378,0.0413 -0.1819013,0 -0.2831873,-0.11059 -0.101286,-0.11162 -0.101286,-0.32659 v -0.74931 h 0.1943037 v 0.65732 q 0,0.0879 0.00827,0.1509 0.00827,0.062 0.03514,0.10645 0.027905,0.0455 0.072347,0.0661 0.044442,0.0207 0.1291913,0.0207 0.075448,0 0.1643313,-0.0393 0.089917,-0.0393 0.1674319,-0.10026 v -0.86196 h 0.1943037 z"
         id="path1371" />
      <path
         d="m 8.2189149,117.63755 q -0.097152,0.0465 -0.1850019,0.0723 -0.086817,0.0258 -0.1850019,0.0258 -0.1250572,0 -0.2294438,-0.0362 -0.1043865,-0.0372 -0.1788007,-0.11162 -0.075448,-0.0744 -0.1167889,-0.18811 -0.041341,-0.11369 -0.041341,-0.26561 0,-0.28319 0.1550295,-0.44442 0.1560631,-0.16123 0.4113451,-0.16123 0.099219,0 0.1943036,0.0279 0.096118,0.0279 0.1757002,0.0682 v 0.216 h -0.010335 q -0.088884,-0.0692 -0.1839684,-0.10645 -0.094051,-0.0372 -0.1839684,-0.0372 -0.1653648,0 -0.2614831,0.11162 -0.095085,0.11059 -0.095085,0.32557 0,0.20877 0.093018,0.32142 0.094051,0.11163 0.2635502,0.11163 0.058911,0 0.1198895,-0.0155 0.060978,-0.0155 0.1095542,-0.0403 0.042375,-0.0217 0.079582,-0.0455 0.037207,-0.0248 0.058911,-0.0424 h 0.010335 z"
         id="path1373" />
      <path
         d="M 9.4333127,117.70989 H 9.239009 v -0.65732 q 0,-0.0796 -0.0093,-0.14883 -0.0093,-0.0703 -0.034107,-0.10956 -0.025838,-0.0434 -0.074414,-0.0641 -0.048576,-0.0217 -0.1260906,-0.0217 -0.079582,0 -0.1663984,0.0393 -0.086817,0.0393 -0.1663984,0.10025 v 0.86196 H 8.4679954 v -1.60817 h 0.1943037 v 0.58188 q 0.090951,-0.0755 0.1881025,-0.11783 0.097152,-0.0424 0.1994714,-0.0424 0.1870689,0 0.2852543,0.11265 0.098185,0.11266 0.098185,0.32453 z"
         id="path1375" />
      <path
         d="m 3.0264588,119.60164 q 0,0.20981 -0.091984,0.38034 -0.090951,0.17053 -0.2428796,0.26458 -0.1054201,0.0651 -0.2356449,0.094 -0.1291913,0.0289 -0.341065,0.0289 H 1.7262778 v -1.53892 h 0.3844733 q 0.2253096,0 0.3576014,0.0331 0.1333254,0.032 0.2253096,0.0889 0.1570966,0.0982 0.2449467,0.26149 0.08785,0.16329 0.08785,0.38757 z m -0.2139407,-0.003 q 0,-0.18087 -0.063045,-0.30489 -0.063045,-0.12403 -0.1881025,-0.19534 -0.090951,-0.0517 -0.1932701,-0.0713 -0.1023195,-0.0207 -0.2449467,-0.0207 H 1.9309168 v 1.18752 h 0.1922366 q 0.1477949,0 0.2573491,-0.0217 0.1105877,-0.0217 0.2025719,-0.0806 0.1147218,-0.0734 0.171566,-0.19327 0.057878,-0.11989 0.057878,-0.29972 z"
         id="path1377" />
      <path
         d="M 4.3080363,119.81248 H 3.457441 q 0,0.10645 0.032039,0.18603 0.032039,0.0786 0.08785,0.1292 0.053743,0.0496 0.1271242,0.0744 0.074414,0.0248 0.1632977,0.0248 0.1178225,0 0.2366785,-0.0465 0.1198895,-0.0476 0.1705325,-0.093 h 0.010335 v 0.21187 q -0.098185,0.0413 -0.2005049,0.0692 -0.1023195,0.0279 -0.2149743,0.0279 -0.2873214,0 -0.4485521,-0.15503 -0.1612307,-0.15606 -0.1612307,-0.44235 0,-0.28318 0.153996,-0.44958 0.1550295,-0.1664 0.4072109,-0.1664 0.2335778,0 0.3596685,0.13643 0.1271242,0.13642 0.1271242,0.38757 z m -0.189136,-0.14883 q -0.00103,-0.15296 -0.077515,-0.23668 -0.075448,-0.0837 -0.2304772,-0.0837 -0.1560631,0 -0.2490808,0.092 -0.091984,0.092 -0.1043865,0.22841 z"
         id="path1379" />
      <path
         d="m 5.6009825,119.2151 -0.4671557,1.15445 H 4.9384896 L 4.4744345,119.2151 h 0.2108402 l 0.3576014,0.91881 0.3545009,-0.91881 z"
         id="path1381" />
      <path
         d="M 6.0640042,119.02183 H 5.8448958 v -0.20154 h 0.2191084 z m -0.012402,1.34772 H 5.8572981 v -1.15445 h 0.1943037 z"
         id="path1383" />
      <path
         d="m 7.289771,120.29721 q -0.097152,0.0465 -0.1850019,0.0723 -0.086817,0.0258 -0.185002,0.0258 -0.1250571,0 -0.2294437,-0.0362 -0.1043865,-0.0372 -0.1788007,-0.11162 -0.075448,-0.0744 -0.1167889,-0.18811 -0.041341,-0.11369 -0.041341,-0.26561 0,-0.28319 0.1550295,-0.44442 0.1560631,-0.16123 0.411345,-0.16123 0.099219,0 0.1943037,0.0279 0.096118,0.0279 0.1757002,0.0682 v 0.216 h -0.010335 q -0.088884,-0.0692 -0.1839684,-0.10645 -0.094051,-0.0372 -0.1839684,-0.0372 -0.1653648,0 -0.2614831,0.11162 -0.095085,0.11059 -0.095085,0.32557 0,0.20877 0.093018,0.32142 0.094051,0.11162 0.2635502,0.11162 0.058911,0 0.1198895,-0.0155 0.060978,-0.0155 0.1095542,-0.0403 0.042375,-0.0217 0.079582,-0.0455 0.037207,-0.0248 0.058911,-0.0424 h 0.010335 z"
         id="path1385" />
      <path
         d="M 8.5052023,119.81248 H 7.6546069 q 0,0.10645 0.032039,0.18603 0.032039,0.0786 0.08785,0.1292 0.053744,0.0496 0.1271242,0.0744 0.074414,0.0248 0.1632978,0.0248 0.1178225,0 0.2366784,-0.0465 0.1198895,-0.0476 0.1705325,-0.093 h 0.010335 v 0.21187 q -0.098185,0.0413 -0.2005048,0.0692 -0.1023195,0.0279 -0.2149743,0.0279 -0.2873214,0 -0.4485521,-0.15503 -0.1612308,-0.15606 -0.1612308,-0.44235 0,-0.28318 0.153996,-0.44958 0.1550296,-0.1664 0.407211,-0.1664 0.2335778,0 0.3596685,0.13643 0.1271242,0.13642 0.1271242,0.38757 z m -0.189136,-0.14883 q -0.00103,-0.15296 -0.077515,-0.23668 -0.075448,-0.0837 -0.2304772,-0.0837 -0.1560631,0 -0.2490808,0.092 -0.091984,0.092 -0.1043866,0.22841 z"
         id="path1387" />
    </g>
    <g
       aria-label=" DIV
TRIG"
       id="text332"
       style="font-size:3.175px;font-family:'Noto Sans Caucasian Albanian';-inkscape-font-specification:'Noto Sans Caucasian Albanian, Normal';fill:#f9f9f9;stroke-width:0.264583">
      <path
         d="m 4.7113519,6.6107523 q 0,0.3147095 -0.1379761,0.5705078 Q 4.43695,7.4370585 4.209057,7.5781351 4.0509271,7.6758036 3.8555902,7.7192118 3.6618036,7.76262 3.3439935,7.76262 H 2.7610834 V 5.4542338 h 0.5767089 q 0.3379639,0 0.5364014,0.049609 0.1999878,0.048059 0.3379639,0.1333251 0.2356445,0.1472779 0.3674194,0.3922242 0.1317749,0.2449462 0.1317749,0.5813598 z m -0.3209107,-0.00465 q 0,-0.2713012 -0.094568,-0.4573364 Q 4.2013055,5.9627299 4.0137201,5.8557596 3.8772943,5.778245 3.7238153,5.7487894 3.5703363,5.7177836 3.3563959,5.7177836 H 3.0680414 v 1.7812866 h 0.2883545 q 0.2216918,0 0.3860229,-0.032556 0.1658813,-0.032556 0.3038574,-0.1209228 0.1720825,-0.1100708 0.2573486,-0.2899048 0.086816,-0.179834 0.086816,-0.449585 z"
         id="path390" />
      <path
         d="M 6.0213494,7.76262 H 5.1097772 V 7.5269754 H 5.4120843 V 5.6898783 H 5.1097772 V 5.4542338 H 6.0213494 V 5.6898783 H 5.7190423 v 1.8370971 h 0.3023071 z"
         id="path392" />
      <path
         d="M 8.3638421,5.4542338 7.5235833,7.76262 H 7.114306 L 6.2740472,5.4542338 H 6.6027093 L 7.3266961,7.4851175 8.0506829,5.4542338 Z"
         id="path394" />
      <path
         d="M 3.2912835,9.716569 H 2.4665277 v 2.035535 H 2.1595697 V 9.716569 H 1.3348138 V 9.4437175 h 1.9564697 z"
         id="path396" />
      <path
         d="M 5.511303,11.752104 H 5.1128777 L 4.3408318,10.83433 H 3.9083001 v 0.917774 H 3.6013421 V 9.4437175 h 0.6464721 q 0.2092896,0 0.3488159,0.027905 0.1395264,0.026355 0.2511475,0.096118 0.1255737,0.079065 0.1953369,0.1999878 0.071314,0.1193726 0.071314,0.3038573 0,0.249597 -0.1255737,0.418579 -0.1255738,0.167432 -0.3457154,0.252698 z M 4.7935174,10.09329 q 0,-0.099218 -0.035657,-0.1751829 Q 4.7237542,9.8405925 4.6431389,9.7878825 4.5764763,9.742924 4.4850091,9.7258708 4.3935418,9.7072673 4.2695183,9.7072673 H 3.9083001 v 0.8712647 h 0.3100586 q 0.1457275,0 0.254248,-0.0248 0.1085205,-0.02636 0.1844849,-0.09612 0.069763,-0.06511 0.1023193,-0.148828 0.034107,-0.08527 0.034107,-0.215491 z"
         id="path398" />
      <path
         d="M 6.622863,11.752104 H 5.7112908 V 11.516459 H 6.0135979 V 9.679362 H 5.7112908 V 9.4437175 H 6.622863 V 9.679362 H 6.3205559 v 1.837097 H 6.622863 Z"
         id="path400" />
      <path
         d="m 9.0707754,11.581571 q -0.1891357,0.08682 -0.4139282,0.151929 -0.2232422,0.06356 -0.4325317,0.06356 -0.269751,0 -0.4945435,-0.07441 -0.2247924,-0.07441 -0.3829223,-0.223242 -0.1596802,-0.150378 -0.2464966,-0.375171 -0.086816,-0.226343 -0.086816,-0.52865 0,-0.553454 0.3224609,-0.8728148 0.3240112,-0.3209106 0.8883179,-0.3209106 0.1968872,0 0.4015259,0.048059 0.2061889,0.046509 0.4433837,0.1596802 V 9.9739177 H 9.0413199 Q 8.9932608,9.9367106 8.9017935,9.8762492 8.8103262,9.8157878 8.7219595,9.7754802 8.6149893,9.7274211 8.4785635,9.6964152 8.343688,9.6638591 8.1716055,9.6638591 q -0.3875732,0 -0.613916,0.2495971 -0.2247925,0.2480468 -0.2247925,0.6728268 0,0.448035 0.2356446,0.697632 0.2356445,0.248047 0.6418212,0.248047 0.1488282,0 0.296106,-0.02946 0.1488281,-0.02946 0.2604492,-0.07597 V 10.860685 H 8.1483511 v -0.269751 h 0.9224243 z"
         id="path402" />
    </g>
  </g>
  <g
     inkscape:groupmode="layer"
     id="layer2"
     inkscape:label="components">
    <circle
       style="fill:#00ff00;stroke-width:0.264583"
       id="path526"
       cx="5.0799999"
       cy="24.671871"
       r="2.2803071"
       inkscape:label="trig" />
    <circle
       style="fill:#0000ff;stroke-width:0.264583"
       id="path526-8"
       cx="5.1906705"
       cy="47.497128"
       r="2.2803071"
       inkscape:label="1x" />
    <circle
       style="fill:#0000ff;stroke-width:0.264583"
       id="path526-8-3"
       cx="5.1906705"
       cy="55.092854"
       r="2.2803071"
       inkscape:label="2x" />
    <circle
       style="fill:#0000ff;stroke-width:0.264583"
       id="path526-8-3-5"
       cx="5.1906705"
       cy="62.68858"
       r="2.2803071"
       inkscape:label="3x" />
    <circle
       style="fill:#0000ff;stroke-width:0.264583"
       id="path526-8-3-5-2"
       cx="5.1906705"
       cy="70.284309"
       r="2.2803071"
       inkscape:label="4x" />
    <circle
       style="fill:#0000ff;stroke-width:0.264583"
       id="path526-8-3-5-2-2"
       cx="5.1906705"
       cy="77.880035"
       r="2.2803071"
       inkscape:label="5x" />
    <circle
       style="fill:#ff00ff;stroke-width:0.264583"
       id="path752"
       cx="5.0799999"
       cy="18.52536"
       r="0.55617243"
       inkscape:label="trig" />
    <circle
       style="fill:#ff0000;stroke-width:0.264583"
       id="path457"
       cx="5.0799999"
       cy="35.98436"
       r="0.72302419"
       inkscape:label="prob" />
    <circle
       style="fill:#0000ff;stroke-width:0.264583"
       id="circle571"
       cx="5.1906705"
       cy="85.475761"
       r="2.2803071"
       inkscape:label="6x" />
    <circle
       style="fill:#0000ff;stroke-width:0.264583"
       id="circle573"
       cx="5.1906705"
       cy="93.071487"
       r="2.2803071"
       inkscape:label="7x" />
    <circle
       style="fill:#0000ff;stroke-width:0.264583"
       id="circle573-8"
       cx="5.1906705"
       cy="100.66721"
       r="2.2803071"
       inkscape:label="8x" />
  </g>
</svg>
