<?xml version="1.0" encoding="UTF-8" standalone="no"?>
<svg
   width="20.32mm"
   height="128.5mm"
   viewBox="0 0 20.32 128.5"
   version="1.1"
   id="svg11"
   sodipodi:docname="TrigGate.svg"
   xmlns:inkscape="http://www.inkscape.org/namespaces/inkscape"
   xmlns:sodipodi="http://sodipodi.sourceforge.net/DTD/sodipodi-0.dtd"
   xmlns="http://www.w3.org/2000/svg"
   xmlns:svg="http://www.w3.org/2000/svg">
  <defs
     id="defs11" />
  <sodipodi:namedview
     id="namedview11"
     pagecolor="#505050"
     bordercolor="#eeeeee"
     borderopacity="1"
     inkscape:showpageshadow="0"
     inkscape:pageopacity="0"
     inkscape:pagecheckerboard="0"
     inkscape:deskcolor="#d1d1d1"
     inkscape:document-units="mm" />
  <rect
     width="20.32"
     height="128.5"
     fill="#1a1a2e"
     id="rect1" />
  <g
     opacity="0.10"
     id="g7">
    <circle
       cx="0"
       cy="128.5"
       r="18"
       fill="none"
       stroke="#fff"
       stroke-width="0.35"
       id="circle1" />
    <circle
       cx="0"
       cy="128.5"
       r="32"
       fill="none"
       stroke="#fff"
       stroke-width="0.28"
       id="circle2" />
    <circle
       cx="0"
       cy="128.5"
       r="48"
       fill="none"
       stroke="#fff"
       stroke-width="0.22"
       id="circle3" />
    <circle
       cx="0"
       cy="128.5"
       r="66"
       fill="none"
       stroke="#fff"
       stroke-width="0.18"
       id="circle4" />
    <circle
       cx="0"
       cy="128.5"
       r="86"
       fill="none"
       stroke="#fff"
       stroke-width="0.14"
       id="circle5" />
    <line
       x1="0"
       y1="128.5"
       x2="20.32"
       y2="0"
       stroke="#fff"
       stroke-width="0.18"
       id="line5" />
    <line
       x1="0"
       y1="128.5"
       x2="20.32"
       y2="50"
       stroke="#fff"
       stroke-width="0.12"
       id="line6" />
    <polygon
       points="6,100 10,92 2,92"
       fill="none"
       stroke="#fff"
       stroke-width="0.2"
       id="polygon6" />
    <circle
       cx="20.32"
       cy="0"
       r="30"
       fill="none"
       stroke="#fff"
       stroke-width="0.12"
       id="circle6" />
    <circle
       cx="20.32"
       cy="0"
       r="52"
       fill="none"
       stroke="#fff"
       stroke-width="0.09"
       id="circle7" />
  </g>
  <rect
     x="0.3"
     y="0.3"
     width="19.72"
     height="127.9"
     rx="0.5"
     fill="none"
     stroke="#303060"
     stroke-width="0.3"
     id="rect7" />
  <!-- Title -->
  <path
     d="M 3.1287904,9.5 V 6.5431999 H 2.5623903 v -0.4608 h 1.6224001 v 0.4608 h -0.5664 V 9.5 Z M 5.090394,6.5431999 v 1.0656 h 0.2784 q 0.1296,0 0.2064,-0.0336 0.0768,-0.0384 0.12,-0.1056 0.0384,-0.0672 0.0528,-0.1632 0.0144,-0.1008 0.0144,-0.2304 0,-0.1296 -0.0144,-0.2256 -0.0144,-0.1008 -0.0576,-0.1728 -0.0912,-0.1344 -0.3456,-0.1344 z M 4.600794,9.5 V 6.0823999 h 0.7872 q 0.8640001,0 0.8640001,1.0032 0,0.3024 -0.096,0.5136 -0.0912,0.2112 -0.3264,0.3408 L 6.3575941,9.5 h -0.5184 L 5.383194,8.0407999 h -0.2928 V 9.5 Z m 2.2592027,0 V 6.0823999 h 0.4896 V 9.5 Z M 7.9959993,6.8887999 q 0,-0.2064 0.072,-0.3648 0.072,-0.1584 0.192,-0.264 0.1152,-0.1008 0.2592,-0.1536 0.1488,-0.0528 0.2976,-0.0528 0.1488,0 0.2928,0.0528 0.1488,0.0528 0.2688,0.1536 0.1152,0.1056 0.1872,0.264 0.072,0.1584 0.072,0.3648 v 0.1728 h -0.4896 v -0.1728 q 0,-0.1776 -0.1008,-0.2592 -0.096,-0.0864 -0.2304,-0.0864 -0.1344,0 -0.2352,0.0864 -0.096,0.0816 -0.096,0.2592 V 8.6936 q 0,0.1776 0.096,0.264 0.1008,0.0816 0.2352,0.0816 0.1344,0 0.2304,-0.0816 0.1008,-0.0864 0.1008,-0.264 V 8.0503999 h -0.3888 v -0.432 h 0.8784 V 8.6936 q 0,0.216 -0.072,0.3696 -0.072,0.1536 -0.1872,0.2544 -0.12,0.1056 -0.2688,0.1584 -0.144,0.0528 -0.2928,0.0528 -0.1488,0 -0.2976,-0.0528 -0.144,-0.0528 -0.2592,-0.1584 -0.12,-0.1008 -0.192,-0.2544 -0.072,-0.1536 -0.072,-0.3696 z m 2.2448027,0 q 0,-0.2064 0.072,-0.3648 0.072,-0.1584 0.192,-0.264 0.1152,-0.1008 0.2592,-0.1536 0.1488,-0.0528 0.2976,-0.0528 0.1488,0 0.2928,0.0528 0.1488,0.0528 0.2688,0.1536 0.1152,0.1056 0.1872,0.264 0.072,0.1584 0.072,0.3648 v 0.1728 h -0.4896 v -0.1728 q 0,-0.1776 -0.1008,-0.2592 -0.096,-0.0864 -0.2304,-0.0864 -0.1344,0 -0.2352,0.0864 -0.096,0.0816 -0.096,0.2592 V 8.6936 q 0,0.1776 0.096,0.264 0.1008,0.0816 0.2352,0.0816 0.1344,0 0.2304,-0.0816 0.1008,-0.0864 0.1008,-0.264 V 8.0503999 h -0.3888 v -0.432 h 0.8784 V 8.6936 q 0,0.216 -0.072,0.3696 -0.072,0.1536 -0.1872,0.2544 -0.12,0.1056 -0.2688,0.1584 -0.144,0.0528 -0.2928,0.0528 -0.1488,0 -0.2976,-0.0528 -0.144,-0.0528 -0.2592,-0.1584 -0.12,-0.1008 -0.192,-0.2544 -0.072,-0.1536 -0.072,-0.3696 z m 3.262403,1.4160001 -0.24,-1.2384001 h -0.0096 l -0.24,1.2384001 z m -1.2096,1.1952 0.7632,-3.4176001 h 0.408 L 14.228005,9.5 h -0.4896 l -0.144,-0.7344 h -0.6672 l -0.144,0.7344 z m 2.431997,0 V 6.5431999 h -0.5664 v -0.4608 h 1.6224 v 0.4608 h -0.5664 V 9.5 Z m 1.472004,0 V 6.0823999 h 1.4592 v 0.4608 h -0.9696 v 1.0032 h 0.8448 v 0.4608 h -0.8448 V 9.0104 h 0.9696 V 9.5 Z"
     id="text7"
     style="font-weight:bold;font-size:4.8px;font-family:'DIN Condensed', sans-serif;letter-spacing:0.2;text-anchor:middle;fill:#c0c8e8"
     aria-label="TRIGGATE" />
  <!-- START: label right of jack -->
    <g transform="translate(2.5, 0)">
    <path
         d="m 11.9072,24.583199 h -0.2448 v -0.0552 q 0,-0.084 -0.0408,-0.144 -0.0384,-0.0624 -0.132,-0.0624 -0.0504,0 -0.0816,0.0192 -0.0312,0.0192 -0.0504,0.048 -0.0192,0.0312 -0.0264,0.072 -0.0072,0.0384 -0.0072,0.0816 0,0.0504 0.0024,0.084 0.0048,0.0336 0.0192,0.06 0.0144,0.0264 0.0408,0.0456 0.0288,0.0192 0.0768,0.0384 l 0.1872,0.0744 q 0.0816,0.0312 0.132,0.0744 0.0504,0.0408 0.0792,0.096 0.0264,0.0576 0.036,0.132 0.0096,0.072 0.0096,0.1656 0,0.108 -0.0216,0.2016 -0.0216,0.0912 -0.0696,0.156 -0.0504,0.0672 -0.132,0.1056 -0.0816,0.0384 -0.1992,0.0384 -0.0888,0 -0.1656,-0.0312 -0.0768,-0.0312 -0.132,-0.0864 -0.0552,-0.0552 -0.0888,-0.1272 -0.0312,-0.0744 -0.0312,-0.1608 v -0.0912 h 0.2448 v 0.0768 q 0,0.0672 0.0384,0.1224 0.0408,0.0528 0.1344,0.0528 0.0624,0 0.096,-0.0168 0.036,-0.0192 0.0552,-0.0528 0.0192,-0.0336 0.0216,-0.0792 0.0048,-0.048 0.0048,-0.1056 0,-0.0672 -0.0048,-0.1104 -0.0048,-0.0432 -0.0192,-0.0696 -0.0168,-0.0264 -0.0456,-0.0432 -0.0264,-0.0168 -0.072,-0.036 l -0.1752,-0.072 q -0.1584,-0.0648 -0.2136,-0.1704 -0.0528,-0.108 -0.0528,-0.2688 0,-0.096 0.0264,-0.1824 0.0264,-0.0864 0.0792,-0.1488 0.0504,-0.0624 0.1272,-0.0984 0.0792,-0.0384 0.1872,-0.0384 0.0912,0 0.1656,0.0336 0.0768,0.0336 0.132,0.0888 0.1104,0.1152 0.1104,0.264 z m 0.3432,1.2168 v -1.4784 h -0.2832 v -0.2304 h 0.8112 v 0.2304 h -0.2832 v 1.4784 z m 0.998401,-0.5976 -0.12,-0.6192 h -0.0048 l -0.12,0.6192 z m -0.6048,0.5976 0.3816,-1.7088 h 0.204 l 0.3816,1.7088 h -0.2448 l -0.072,-0.3672 h -0.3336 l -0.072,0.3672 z m 1.331999,-1.4784 v 0.5328 h 0.1392 q 0.0648,0 0.1032,-0.0168 0.0384,-0.0192 0.06,-0.0528 0.0192,-0.0336 0.0264,-0.0816 0.0072,-0.0504 0.0072,-0.1152 0,-0.0648 -0.0072,-0.1128 -0.0072,-0.0504 -0.0288,-0.0864 -0.0456,-0.0672 -0.1728,-0.0672 z m -0.2448,1.4784 v -1.7088 h 0.3936 q 0.432,0 0.432,0.5016 0,0.1512 -0.048,0.2568 -0.0456,0.1056 -0.1632,0.1704 l 0.264,0.78 h -0.2592 l -0.228,-0.7296 H 13.976 v 0.7296 z m 1.140003,0 v -1.4784 h -0.2832 v -0.2304 h 0.8112 v 0.2304 h -0.2832 v 1.4784 z"
         id="text8"
         style="font-size:2.4px;font-family:'DIN Condensed', sans-serif;opacity:1;fill:#c0c8e8"
         aria-label="START" />
  </g>
  <circle
     cx="7.62"
     cy="24.672"
     r="3.2"
     fill="none"
     stroke="#555"
     stroke-width="0.3"
     opacity="0.4"
     id="circle8" />
  <!-- STOP: label right of jack -->
    <g transform="translate(2.5, 0)">
    <path
         d="M 11.9072,37.2832 H 11.6624 V 37.228 q 0,-0.084 -0.0408,-0.144 -0.0384,-0.0624 -0.132,-0.0624 -0.0504,0 -0.0816,0.0192 -0.0312,0.0192 -0.0504,0.048 -0.0192,0.0312 -0.0264,0.072 -0.0072,0.0384 -0.0072,0.0816 0,0.0504 0.0024,0.084 0.0048,0.0336 0.0192,0.06 0.0144,0.0264 0.0408,0.0456 0.0288,0.0192 0.0768,0.0384 l 0.1872,0.0744 q 0.0816,0.0312 0.132,0.0744 0.0504,0.0408 0.0792,0.096 0.0264,0.0576 0.036,0.132 0.0096,0.072 0.0096,0.1656 0,0.108 -0.0216,0.2016 -0.0216,0.0912 -0.0696,0.156 -0.0504,0.0672 -0.132,0.1056 -0.0816,0.0384 -0.1992,0.0384 -0.0888,0 -0.1656,-0.0312 -0.0768,-0.0312 -0.132,-0.0864 -0.0552,-0.0552 -0.0888,-0.1272 -0.0312,-0.0744 -0.0312,-0.1608 v -0.0912 h 0.2448 v 0.0768 q 0,0.0672 0.0384,0.1224 0.0408,0.0528 0.1344,0.0528 0.0624,0 0.096,-0.0168 0.036,-0.0192 0.0552,-0.0528 0.0192,-0.0336 0.0216,-0.0792 0.0048,-0.048 0.0048,-0.1056 0,-0.0672 -0.0048,-0.1104 -0.0048,-0.0432 -0.0192,-0.0696 -0.0168,-0.0264 -0.0456,-0.0432 -0.0264,-0.0168 -0.072,-0.036 l -0.1752,-0.072 q -0.1584,-0.0648 -0.2136,-0.1704 -0.0528,-0.108 -0.0528,-0.2688 0,-0.096 0.0264,-0.1824 0.0264,-0.0864 0.0792,-0.1488 0.0504,-0.0624 0.1272,-0.0984 0.0792,-0.0384 0.1872,-0.0384 0.0912,0 0.1656,0.0336 0.0768,0.0336 0.132,0.0888 0.1104,0.1152 0.1104,0.264 z M 12.2504,38.5 v -1.4784 h -0.2832 v -0.2304 h 0.8112 v 0.2304 H 12.4952 V 38.5 Z m 0.592804,-1.3056 q 0,-0.1032 0.036,-0.1824 0.036,-0.0792 0.096,-0.132 0.0576,-0.0504 0.1296,-0.0768 0.0744,-0.0264 0.1488,-0.0264 0.0744,0 0.1464,0.0264 0.0744,0.0264 0.1344,0.0768 0.0576,0.0528 0.0936,0.132 0.036,0.0792 0.036,0.1824 v 0.9024 q 0,0.108 -0.036,0.1848 -0.036,0.0768 -0.0936,0.1272 -0.06,0.0528 -0.1344,0.0792 -0.072,0.0264 -0.1464,0.0264 -0.0744,0 -0.1488,-0.0264 -0.072,-0.0264 -0.1296,-0.0792 -0.06,-0.0504 -0.096,-0.1272 -0.036,-0.0768 -0.036,-0.1848 z m 0.2448,0.9024 q 0,0.0888 0.048,0.132 0.0504,0.0408 0.1176,0.0408 0.0672,0 0.1152,-0.0408 0.0504,-0.0432 0.0504,-0.132 v -0.9024 q 0,-0.0888 -0.0504,-0.1296 -0.048,-0.0432 -0.1152,-0.0432 -0.0672,0 -0.1176,0.0432 -0.048,0.0408 -0.048,0.1296 z M 13.880006,38.5 v -1.7088 h 0.3672 q 0.1008,0 0.1776,0.0264 0.0768,0.0264 0.1392,0.0936 0.0624,0.0672 0.0864,0.1584 0.024,0.0888 0.024,0.2424 0,0.1152 -0.0144,0.1944 -0.012,0.0792 -0.0552,0.1488 -0.0504,0.084 -0.1344,0.132 -0.084,0.0456 -0.2208,0.0456 h -0.1248 V 38.5 Z m 0.2448,-1.4784 v 0.5808 h 0.1176 q 0.0744,0 0.1152,-0.0216 0.0408,-0.0216 0.06,-0.06 0.0192,-0.036 0.0216,-0.0888 0.0048,-0.0528 0.0048,-0.1176 0,-0.06 -0.0024,-0.1128 -0.0024,-0.0552 -0.0216,-0.096 -0.0192,-0.0408 -0.0576,-0.0624 -0.0384,-0.0216 -0.1104,-0.0216 z"
         id="text9"
         style="font-size:2.4px;font-family:'DIN Condensed', sans-serif;opacity:1;fill:#c0c8e8"
         aria-label="STOP" />
  </g>
  <circle
     cx="7.62"
     cy="37.353"
     r="3.2"
     fill="none"
     stroke="#555"
     stroke-width="0.3"
     opacity="0.4"
     id="circle9" />
  <line
     x1="2.5"
     y1="43.5"
     x2="17.82"
     y2="43.5"
     stroke="#2a2a3a"
     stroke-width="0.4"
     id="line9" />
  <!-- GATE: label right of jack -->
    <g transform="translate(2.5, 0)">
    <path
         d="m 11.1008,109.0944 q 0,-0.1032 0.036,-0.1824 0.036,-0.0792 0.096,-0.132 0.0576,-0.0504 0.1296,-0.0768 0.0744,-0.0264 0.1488,-0.0264 0.0744,0 0.1464,0.0264 0.0744,0.0264 0.1344,0.0768 0.0576,0.0528 0.0936,0.132 0.036,0.0792 0.036,0.1824 v 0.0864 h -0.2448 v -0.0864 q 0,-0.0888 -0.0504,-0.1296 -0.048,-0.0432 -0.1152,-0.0432 -0.0672,0 -0.1176,0.0432 -0.048,0.0408 -0.048,0.1296 v 0.9024 q 0,0.0888 0.048,0.132 0.0504,0.0408 0.1176,0.0408 0.0672,0 0.1152,-0.0408 0.0504,-0.0432 0.0504,-0.132 v -0.3216 h -0.1944 v -0.216 h 0.4392 v 0.5376 q 0,0.108 -0.036,0.1848 -0.036,0.0768 -0.0936,0.1272 -0.06,0.0528 -0.1344,0.0792 -0.072,0.0264 -0.1464,0.0264 -0.0744,0 -0.1488,-0.0264 -0.072,-0.0264 -0.1296,-0.0792 -0.06,-0.0504 -0.096,-0.1272 -0.036,-0.0768 -0.036,-0.1848 z m 1.531201,0.708 -0.12,-0.6192 h -0.0048 l -0.12,0.6192 z m -0.6048,0.5976 0.3816,-1.7088 h 0.204 l 0.3816,1.7088 h -0.2448 l -0.072,-0.3672 h -0.3336 l -0.072,0.3672 z m 1.115999,0 v -1.4784 H 12.86 v -0.2304 h 0.8112 v 0.2304 H 13.388 V 110.4 Z m 0.636001,0 v -1.7088 h 0.7296 v 0.2304 h -0.4848 v 0.5016 h 0.4224 v 0.2304 h -0.4224 v 0.5016 h 0.4848 V 110.4 Z"
         id="text10"
         style="font-size:2.4px;font-family:'DIN Condensed', sans-serif;opacity:1;fill:#c0c8e8"
         aria-label="GATE" />
  </g>
  <circle
     cx="7.62"
     cy="109.232"
     r="3.2"
     fill="none"
     stroke="#555"
     stroke-width="0.3"
     opacity="0.4"
     id="circle10" />
  <!-- Brand -->
  <path
     d="m 1.0560931,123 v -1.8512 h 0.2548 l 0.4004,1.1154 h 0.0052 v -1.1154 h 0.2652 V 123 h -0.2496 l -0.4056,-1.1128 h -0.0052 V 123 Z m 1.5492006,-1.4144 q 0,-0.1118 0.039,-0.1976 0.039,-0.0858 0.104,-0.143 0.0624,-0.0546 0.1404,-0.0832 0.0806,-0.0286 0.1612,-0.0286 0.0806,0 0.1586,0.0286 0.0806,0.0286 0.1456,0.0832 0.0624,0.0572 0.1014,0.143 0.039,0.0858 0.039,0.1976 v 0.9776 q 0,0.117 -0.039,0.2002 -0.039,0.0832 -0.1014,0.1378 -0.065,0.0572 -0.1456,0.0858 -0.078,0.0286 -0.1586,0.0286 -0.0806,0 -0.1612,-0.0286 -0.078,-0.0286 -0.1404,-0.0858 -0.065,-0.0546 -0.104,-0.1378 -0.039,-0.0832 -0.039,-0.2002 z m 0.2652,0.9776 q 0,0.0962 0.052,0.143 0.0546,0.0442 0.1274,0.0442 0.0728,0 0.1248,-0.0442 0.0546,-0.0468 0.0546,-0.143 v -0.9776 q 0,-0.0962 -0.0546,-0.1404 -0.052,-0.0468 -0.1248,-0.0468 -0.0728,0 -0.1274,0.0468 -0.052,0.0442 -0.052,0.1404 z m 2.9996037,-0.8814 h -0.2652 v -0.0598 q 0,-0.091 -0.0442,-0.156 -0.0416,-0.0676 -0.143,-0.0676 -0.0546,0 -0.0884,0.0208 -0.0338,0.0208 -0.0546,0.052 -0.0208,0.0338 -0.0286,0.078 -0.0078,0.0416 -0.0078,0.0884 0,0.0546 0.0026,0.091 0.0052,0.0364 0.0208,0.065 0.0156,0.0286 0.0442,0.0494 0.0312,0.0208 0.0832,0.0416 l 0.2028,0.0806 q 0.0884,0.0338 0.143,0.0806 0.0546,0.0442 0.0858,0.104 0.0286,0.0624 0.039,0.143 0.0104,0.078 0.0104,0.1794 0,0.117 -0.0234,0.2184 -0.0234,0.0988 -0.0754,0.169 -0.0546,0.0728 -0.143,0.1144 -0.0884,0.0416 -0.2158,0.0416 -0.0962,0 -0.1794,-0.0338 -0.0832,-0.0338 -0.143,-0.0936 -0.0598,-0.0598 -0.0962,-0.1378 -0.0338,-0.0806 -0.0338,-0.1742 v -0.0988 h 0.2651999 v 0.0832 q 0,0.0728 0.0416,0.1326 0.0442,0.0572 0.1456,0.0572 0.0676,0 0.104,-0.0182 0.039,-0.0208 0.0598,-0.0572 0.0208,-0.0364 0.0234,-0.0858 0.0052,-0.052 0.0052,-0.1144 0,-0.0728 -0.0052,-0.1196 -0.0052,-0.0468 -0.0208,-0.0754 -0.0182,-0.0286 -0.0494,-0.0468 -0.0286,-0.0182 -0.078,-0.039 l -0.1898,-0.078 q -0.1716,-0.0702 -0.2314,-0.1846 -0.0572,-0.117 -0.0572,-0.2912 0,-0.104 0.0286,-0.1976 0.0286,-0.0936 0.0858,-0.1612 0.0546,-0.0676 0.1378,-0.1066 0.0858,-0.0416 0.2028,-0.0416 0.0988,0 0.1794,0.0364 0.0832,0.0364 0.143,0.0962 0.1196,0.1248 0.1196,0.286 z m 1.4556003,-0.533 v 1.4352 q 0,0.091 -0.0338,0.169 -0.0312,0.0754 -0.091,0.1352 -0.0598,0.0598 -0.1378,0.0936 -0.078,0.0338 -0.1664,0.0338 -0.0884,0 -0.1664,-0.0338 -0.0754,-0.0338 -0.1352,-0.0936 -0.0598,-0.0598 -0.0936,-0.1352 -0.0338,-0.078 -0.0338,-0.169 v -1.4352 h 0.2652 v 1.4092 q 0,0.0988 0.0468,0.1456 0.0468,0.0468 0.117,0.0468 0.0702,0 0.117,-0.0468 0.0468,-0.0468 0.0468,-0.1456 v -1.4092 z m 1.4920012,1.3234 v 0.1144 q 0,0.0858 -0.0338,0.1638 -0.0312,0.0754 -0.0884,0.1352 -0.0572,0.0598 -0.1352,0.0962 -0.0754,0.0338 -0.1637999,0.0338 -0.0754,0 -0.1534,-0.0208 -0.078,-0.0208 -0.1404,-0.0728 -0.0624,-0.052 -0.104,-0.1326 -0.039,-0.0832 -0.039,-0.2106 v -1.0192 q 0,-0.091 0.0312,-0.169 0.0312,-0.078 0.0884,-0.1352 0.0572,-0.0572 0.1352,-0.0884 0.0806,-0.0338 0.1768,-0.0338 0.1871999,0 0.3041999,0.1222 0.0572,0.0598 0.0884,0.143 0.0338,0.0806 0.0338,0.1768 v 0.104 h -0.2652 v -0.0884 q 0,-0.078 -0.0442,-0.1352 -0.0442,-0.0572 -0.1196,-0.0572 -0.0988,0 -0.1326,0.0624 -0.0312,0.0598 -0.0312,0.1534 v 0.9464 q 0,0.0806 0.0338,0.1352 0.0364,0.0546 0.1274,0.0546 0.026,0 0.0546,-0.008 0.0312,-0.0104 0.0572,-0.0312 0.0234,-0.0208 0.039,-0.0572 0.0156,-0.0364 0.0156,-0.091 v -0.091 z M 9.4334985,123 v -1.8512 h 0.2652 v 0.793 h 0.3275995 v -0.793 h 0.2652 V 123 h -0.2652 v -0.8242 H 9.6986985 V 123 Z m 2.3912025,0 v -1.8512 h 0.3926 q 0.2288,0 0.3458,0.1248 0.1196,0.1248 0.1196,0.3536 v 0.8658 q 0,0.26 -0.1274,0.3848 -0.1248,0.1222 -0.3614,0.1222 z m 0.2652,-1.6016 v 1.352 h 0.1222 q 0.1118,0 0.1586,-0.0546 0.0468,-0.0572 0.0468,-0.1768 v -0.8918 q 0,-0.1092 -0.0442,-0.169 -0.0442,-0.0598 -0.1612,-0.0598 z M 13.332303,123 v -1.8512 h 0.7904 v 0.2496 h -0.5252 v 0.5434 h 0.4576 v 0.2496 h -0.4576 v 0.5434 h 0.5252 V 123 Z m 2.261602,-1.8512 -0.3796,1.8512 h -0.234 l -0.376999,-1.8512 h 0.2808 l 0.210599,1.2922 h 0.0052 l 0.2132,-1.2922 z M 16.160304,123 v -1.8512 h 0.2652 V 123 Z m 1.765002,-0.5278 v 0.1144 q 0,0.0858 -0.0338,0.1638 -0.0312,0.0754 -0.0884,0.1352 -0.0572,0.0598 -0.1352,0.0962 -0.0754,0.0338 -0.1638,0.0338 -0.0754,0 -0.1534,-0.0208 -0.078,-0.0208 -0.1404,-0.0728 -0.0624,-0.052 -0.104,-0.1326 -0.039,-0.0832 -0.039,-0.2106 v -1.0192 q 0,-0.091 0.0312,-0.169 0.0312,-0.078 0.0884,-0.1352 0.0572,-0.0572 0.1352,-0.0884 0.0806,-0.0338 0.1768,-0.0338 0.1872,0 0.3042,0.1222 0.0572,0.0598 0.0884,0.143 0.0338,0.0806 0.0338,0.1768 v 0.104 h -0.2652 v -0.0884 q 0,-0.078 -0.0442,-0.1352 -0.0442,-0.0572 -0.1196,-0.0572 -0.0988,0 -0.1326,0.0624 -0.0312,0.0598 -0.0312,0.1534 v 0.9464 q 0,0.0806 0.0338,0.1352 0.0364,0.0546 0.1274,0.0546 0.026,0 0.0546,-0.008 0.0312,-0.0104 0.0572,-0.0312 0.0234,-0.0208 0.039,-0.0572 0.0156,-0.0364 0.0156,-0.091 v -0.091 z M 18.541104,123 v -1.8512 h 0.7904 v 0.2496 h -0.5252 v 0.5434 h 0.4576 v 0.2496 h -0.4576 v 0.5434 h 0.5252 V 123 Z"
     id="text11"
     style="font-size:2.6px;font-family:'DIN Condensed', sans-serif;letter-spacing:0.4;text-anchor:middle;fill:#c0c8e8"
     aria-label="NO SUCH DEVICE" />
</svg>
