<?xml version="1.0" encoding="UTF-8" standalone="no"?>
<!-- Created with Inkscape (http://www.inkscape.org/) -->

<svg
   width="10.16mm"
   height="128.5mm"
   viewBox="0 0 10.16 128.5"
   version="1.1"
   id="svg5"
   inkscape:version="1.2.2 (b0a84865, 2022-12-01)"
   sodipodi:docname="TrigGate.svg"
   xmlns:inkscape="http://www.inkscape.org/namespaces/inkscape"
   xmlns:sodipodi="http://sodipodi.sourceforge.net/DTD/sodipodi-0.dtd"
   xmlns="http://www.w3.org/2000/svg"
   xmlns:svg="http://www.w3.org/2000/svg">
  <sodipodi:namedview
     id="namedview7"
     pagecolor="#505050"
     bordercolor="#eeeeee"
     borderopacity="1"
     inkscape:showpageshadow="0"
     inkscape:pageopacity="0"
     inkscape:pagecheckerboard="0"
     inkscape:deskcolor="#505050"
     inkscape:document-units="mm"
     showgrid="false"
     inkscape:zoom="2.3786088"
     inkscape:cx="59.278348"
     inkscape:cy="408.43202"
     inkscape:window-width="1093"
     inkscape:window-height="723"
     inkscape:window-x="52"
     inkscape:window-y="142"
     inkscape:window-maximized="0"
     inkscape:current-layer="layer1" />
  <defs
     id="defs2">
    <rect
       x="-19.759449"
       y="430.92416"
       width="85.344004"
       height="36.996416"
       id="rect1179" />
    <rect
       x="-16.816553"
       y="427.14044"
       width="96.695177"
       height="48.768003"
       id="rect1159" />
  </defs>
  <g
     inkscape:groupmode="layer"
     id="layer3"
     inkscape:label="background">
    <rect
       style="fill:#666666;stroke-width:0.264583"
       id="rect877"
       width="12.235792"
       height="130.25558"
       x="-0.66740686"
       y="-0.55616784"
       ry="0" />
  </g>
  <g
     inkscape:label="labels"
     inkscape:groupmode="layer"
     id="layer1">
    <g
       aria-label="TRIG
GATE"
       id="text258"
       style="font-size:3.175px;stroke-width:0.264583;fill:#f9f9f9"
       inkscape:label="title"
       transform="translate(0,3.7041668)">
      <path
         d="M 3.0688146,1.746438 H 2.2440587 V 3.7819726 H 1.9371007 V 1.746438 H 1.1123449 V 1.4735865 h 1.9564697 z"
         id="path947"
         style="fill:#f9f9f9" />
      <path
         d="M 5.288834,3.7819726 H 4.8904087 L 4.1183628,2.8641992 H 3.6858311 V 3.7819726 H 3.3788731 V 1.4735865 h 0.6464722 q 0.2092895,0 0.3488159,0.027905 0.1395263,0.026355 0.2511474,0.096118 0.1255738,0.079065 0.1953369,0.1999878 0.071313,0.1193725 0.071313,0.3038574 0,0.2495972 -0.1255737,0.4185791 Q 4.6408116,2.6874658 4.42067,2.7727319 Z M 4.5710484,2.1231592 q 0,-0.099219 -0.035657,-0.1751831 Q 4.5012852,1.8704614 4.42067,1.8177515 4.3540074,1.772793 4.2625401,1.7557398 4.1710728,1.7371363 4.0470494,1.7371363 H 3.6858311 v 0.8712646 h 0.3100586 q 0.1457275,0 0.254248,-0.024805 0.1085205,-0.026355 0.1844849,-0.096118 0.069763,-0.065112 0.1023193,-0.1488281 0.034106,-0.085266 0.034106,-0.2154906 z"
         id="path949"
         style="fill:#f9f9f9" />
      <path
         d="M 6.4003941,3.7819726 H 5.4888218 V 3.5463281 H 5.7911289 V 1.709231 H 5.4888218 V 1.4735865 H 6.4003941 V 1.709231 H 6.0980869 v 1.8370971 h 0.3023072 z"
         id="path951"
         style="fill:#f9f9f9" />
      <path
         d="m 8.8483065,3.6114404 q -0.1891358,0.086816 -0.4139283,0.1519287 -0.2232421,0.063562 -0.4325317,0.063562 -0.269751,0 -0.4945434,-0.074414 Q 7.2825106,3.678103 7.1243807,3.5292749 6.9647005,3.3788965 6.8778841,3.154104 6.7910677,2.9277612 6.7910677,2.6254541 q 0,-0.5534546 0.3224609,-0.8728149 0.3240113,-0.3209107 0.8883179,-0.3209107 0.1968872,0 0.4015259,0.048059 0.2061889,0.046509 0.4433838,0.1596802 V 2.0037866 H 8.8188509 Q 8.7707918,1.9665796 8.6793245,1.9061182 8.5878572,1.8456568 8.4994905,1.8053491 8.3925203,1.7572901 8.2560946,1.7262842 8.1212191,1.693728 7.9491365,1.693728 q -0.3875732,0 -0.613916,0.2495972 -0.2247924,0.2480469 -0.2247924,0.6728272 0,0.4480346 0.2356445,0.6976318 0.2356445,0.2480468 0.6418213,0.2480468 0.1488281,0 0.2961059,-0.029456 Q 8.4328279,3.502919 8.544449,3.456411 V 2.8905542 H 7.9258822 v -0.269751 h 0.9224243 z"
         id="path953"
         style="fill:#f9f9f9" />
      <path
         d="m 3.3478673,7.5801904 q -0.1891358,0.086816 -0.4139282,0.1519287 -0.2232422,0.063562 -0.4325318,0.063562 -0.2697509,0 -0.4945434,-0.074414 Q 1.7820714,7.646853 1.6239415,7.4980248 1.4642614,7.3476464 1.377445,7.1228539 1.2906285,6.8965112 1.2906285,6.594204 q 0,-0.5534545 0.322461,-0.8728149 0.3240112,-0.3209106 0.8883178,-0.3209106 0.1968872,0 0.4015259,0.048059 0.206189,0.046509 0.4433838,0.1596801 v 0.364319 H 3.3184117 Q 3.2703526,5.9353295 3.1788854,5.8748681 3.0874181,5.8144067 2.9990514,5.7740991 2.8920812,5.72604 2.7556554,5.6950341 2.6207799,5.662478 2.4486974,5.662478 q -0.3875733,0 -0.613916,0.2495972 -0.2247925,0.2480468 -0.2247925,0.6728271 0,0.4480347 0.2356445,0.6976318 0.2356446,0.2480469 0.6418213,0.2480469 0.1488281,0 0.296106,-0.029456 Q 2.9323888,7.471669 3.0440099,7.425161 V 6.8593041 H 2.425443 V 6.5895532 h 0.9224243 z"
         id="path955"
         style="fill:#f9f9f9" />
      <path
         d="M 5.7043126,7.7507226 H 5.3772007 L 5.150858,7.107351 H 4.1524693 L 3.9261265,7.7507226 H 3.6145177 L 4.4547764,5.4423364 H 4.8640538 Z M 5.0562901,6.8438012 4.6516636,5.7105371 4.2454869,6.8438012 Z"
         id="path957"
         style="fill:#f9f9f9" />
      <path
         d="M 7.515055,5.7151879 H 6.6902991 V 7.7507226 H 6.3833411 V 5.7151879 H 5.5585853 V 5.4423364 H 7.515055 Z"
         id="path959"
         style="fill:#f9f9f9" />
      <path
         d="M 9.3459508,7.7507226 H 7.8251134 V 5.4423364 H 9.3459508 V 5.7151879 H 8.1320714 V 6.3477075 H 9.3459508 V 6.620559 H 8.1320714 v 0.857312 h 1.2138794 z"
         id="path961"
         style="fill:#f9f9f9" />
    </g>
    <text
       xml:space="preserve"
       style="font-size:3.175px;fill:#f9f9f9;stroke-width:0.264583"
       x="1.8909863"
       y="117.01868"
       id="text1103"><tspan
         sodipodi:role="line"
         style="stroke-width:0.264583"
         x="1.8909863"
         y="117.01868"
         id="tspan1105" /></text>
    <text
       xml:space="preserve"
       transform="scale(0.26458333)"
       id="text1157"
       style="fill:#f9f9f9;white-space:pre;shape-inside:url(#rect1159)" />
    <text
       xml:space="preserve"
       style="font-size:3.175px;fill:#f9f9f9;stroke-width:0.264583"
       x="3.4482691"
       y="115.90633"
       id="text1167"><tspan
         sodipodi:role="line"
         id="tspan1165"
         style="stroke-width:0.264583"
         x="3.4482691"
         y="115.90633" /></text>
    <text
       xml:space="preserve"
       transform="scale(0.26458333)"
       id="text1177"
       style="fill:#f9f9f9;-inkscape-font-specification:'.New York, Normal';font-family:'.New York';font-weight:normal;font-style:normal;font-stretch:normal;font-variant:normal;font-size:12px;font-variant-ligatures:normal;font-variant-caps:normal;font-variant-numeric:normal;font-variant-east-asian:normal;white-space:pre;shape-inside:url(#rect1179)" />
    <g
       aria-label="No Such
 Device"
       id="text1361"
       style="font-size:2.11667px;font-family:'Noto Sans Caucasian Albanian';-inkscape-font-specification:'Noto Sans Caucasian Albanian, Normal';fill:#f9f9f9;stroke-width:0.264583">
      <path
         d="M 2.1562264,117.70989 H 1.9030115 l -0.7296723,-1.37666 v 1.37666 H 0.98213607 v -1.53892 H 1.2994298 l 0.6655935,1.25677 v -1.25677 h 0.1912031 z"
         id="path1365" />
      <path
         d="m 3.5339222,117.13318 q 0,0.28216 -0.1446942,0.44545 -0.1446943,0.1633 -0.3875739,0.1633 -0.2449466,0 -0.3896409,-0.1633 -0.1436607,-0.16329 -0.1436607,-0.44545 0,-0.28215 0.1436607,-0.44545 0.1446943,-0.16433 0.3896409,-0.16433 0.2428796,0 0.3875739,0.16433 0.1446942,0.1633 0.1446942,0.44545 z m -0.2005049,0 q 0,-0.22427 -0.08785,-0.33279 -0.08785,-0.10956 -0.2439132,-0.10956 -0.1581301,0 -0.2459802,0.10956 -0.086817,0.10852 -0.086817,0.33279 0,0.21704 0.08785,0.3297 0.08785,0.11162 0.2449466,0.11162 0.1550296,0 0.2428796,-0.11059 0.088884,-0.11162 0.088884,-0.33073 z"
         id="path1367" />
      <path
         d="m 5.7126039,117.27064 q 0,0.0899 -0.042375,0.17777 -0.041341,0.0879 -0.1167889,0.14883 -0.082682,0.0661 -0.1932701,0.10335 -0.1095542,0.0372 -0.2645838,0.0372 -0.1663983,0 -0.2997237,-0.031 -0.1322919,-0.031 -0.2697514,-0.092 v -0.25632 h 0.014469 q 0.1167889,0.0971 0.2697514,0.14986 0.1529625,0.0527 0.2873214,0.0527 0.1901695,0 0.2955896,-0.0713 0.1064536,-0.0713 0.1064536,-0.19017 0,-0.10232 -0.050643,-0.15089 -0.04961,-0.0486 -0.151929,-0.0755 -0.077515,-0.0207 -0.1684654,-0.0341 -0.089917,-0.0134 -0.1912031,-0.0341 -0.204639,-0.0434 -0.3038579,-0.14779 -0.098185,-0.10542 -0.098185,-0.27389 0,-0.19327 0.1632978,-0.31626 0.1632978,-0.12402 0.4144456,-0.12402 0.1622643,0 0.2976567,0.031 0.1353925,0.031 0.2397791,0.0765 v 0.24184 h -0.014469 q -0.08785,-0.0744 -0.2315107,-0.12299 -0.1426272,-0.0496 -0.2924891,-0.0496 -0.1643313,0 -0.2645837,0.0682 -0.099219,0.0682 -0.099219,0.1757 0,0.0961 0.049609,0.15089 0.049609,0.0548 0.1746666,0.0837 0.066146,0.0145 0.1881025,0.0351 0.1219566,0.0207 0.2067061,0.0424 0.171566,0.0455 0.2583825,0.13746 0.086817,0.092 0.086817,0.25735 z"
         id="path1369" />
      <path
         d="M 6.9828128,117.70989 H 6.7885091 v -0.12816 q -0.098185,0.0775 -0.1881025,0.11886 -0.089917,0.0413 -0.1984378,0.0413 -0.1819013,0 -0.2831873,-0.11059 -0.101286,-0.11162 -0.101286,-0.32659 v -0.74931 h 0.1943037 v 0.65732 q 0,0.0879 0.00827,0.1509 0.00827,0.062 0.03514,0.10645 0.027905,0.0455 0.072347,0.0661 0.044442,0.0207 0.1291913,0.0207 0.075448,0 0.1643313,-0.0393 0.089917,-0.0393 0.1674319,-0.10026 v -0.86196 h 0.1943037 z"
         id="path1371" />
      <path
         d="m 8.2189149,117.63755 q -0.097152,0.0465 -0.1850019,0.0723 -0.086817,0.0258 -0.1850019,0.0258 -0.1250572,0 -0.2294438,-0.0362 -0.1043865,-0.0372 -0.1788007,-0.11162 -0.075448,-0.0744 -0.1167889,-0.18811 -0.041341,-0.11369 -0.041341,-0.26561 0,-0.28319 0.1550295,-0.44442 0.1560631,-0.16123 0.4113451,-0.16123 0.099219,0 0.1943036,0.0279 0.096118,0.0279 0.1757002,0.0682 v 0.216 h -0.010335 q -0.088884,-0.0692 -0.1839684,-0.10645 -0.094051,-0.0372 -0.1839684,-0.0372 -0.1653648,0 -0.2614831,0.11162 -0.095085,0.11059 -0.095085,0.32557 0,0.20877 0.093018,0.32142 0.094051,0.11163 0.2635502,0.11163 0.058911,0 0.1198895,-0.0155 0.060978,-0.0155 0.1095542,-0.0403 0.042375,-0.0217 0.079582,-0.0455 0.037207,-0.0248 0.058911,-0.0424 h 0.010335 z"
         id="path1373" />
      <path
         d="M 9.4333127,117.70989 H 9.239009 v -0.65732 q 0,-0.0796 -0.0093,-0.14883 -0.0093,-0.0703 -0.034107,-0.10956 -0.025838,-0.0434 -0.074414,-0.0641 -0.048576,-0.0217 -0.1260906,-0.0217 -0.079582,0 -0.1663984,0.0393 -0.086817,0.0393 -0.1663984,0.10025 v 0.86196 H 8.4679954 v -1.60817 h 0.1943037 v 0.58188 q 0.090951,-0.0755 0.1881025,-0.11783 0.097152,-0.0424 0.1994714,-0.0424 0.1870689,0 0.2852543,0.11265 0.098185,0.11266 0.098185,0.32453 z"
         id="path1375" />
      <path
         d="m 3.0264588,119.60164 q 0,0.20981 -0.091984,0.38034 -0.090951,0.17053 -0.2428796,0.26458 -0.1054201,0.0651 -0.2356449,0.094 -0.1291913,0.0289 -0.341065,0.0289 H 1.7262778 v -1.53892 h 0.3844733 q 0.2253096,0 0.3576014,0.0331 0.1333254,0.032 0.2253096,0.0889 0.1570966,0.0982 0.2449467,0.26149 0.08785,0.16329 0.08785,0.38757 z m -0.2139407,-0.003 q 0,-0.18087 -0.063045,-0.30489 -0.063045,-0.12403 -0.1881025,-0.19534 -0.090951,-0.0517 -0.1932701,-0.0713 -0.1023195,-0.0207 -0.2449467,-0.0207 H 1.9309168 v 1.18752 h 0.1922366 q 0.1477949,0 0.2573491,-0.0217 0.1105877,-0.0217 0.2025719,-0.0806 0.1147218,-0.0734 0.171566,-0.19327 0.057878,-0.11989 0.057878,-0.29972 z"
         id="path1377" />
      <path
         d="M 4.3080363,119.81248 H 3.457441 q 0,0.10645 0.032039,0.18603 0.032039,0.0786 0.08785,0.1292 0.053743,0.0496 0.1271242,0.0744 0.074414,0.0248 0.1632977,0.0248 0.1178225,0 0.2366785,-0.0465 0.1198895,-0.0476 0.1705325,-0.093 h 0.010335 v 0.21187 q -0.098185,0.0413 -0.2005049,0.0692 -0.1023195,0.0279 -0.2149743,0.0279 -0.2873214,0 -0.4485521,-0.15503 -0.1612307,-0.15606 -0.1612307,-0.44235 0,-0.28318 0.153996,-0.44958 0.1550295,-0.1664 0.4072109,-0.1664 0.2335778,0 0.3596685,0.13643 0.1271242,0.13642 0.1271242,0.38757 z m -0.189136,-0.14883 q -0.00103,-0.15296 -0.077515,-0.23668 -0.075448,-0.0837 -0.2304772,-0.0837 -0.1560631,0 -0.2490808,0.092 -0.091984,0.092 -0.1043865,0.22841 z"
         id="path1379" />
      <path
         d="m 5.6009825,119.2151 -0.4671557,1.15445 H 4.9384896 L 4.4744345,119.2151 h 0.2108402 l 0.3576014,0.91881 0.3545009,-0.91881 z"
         id="path1381" />
      <path
         d="M 6.0640042,119.02183 H 5.8448958 v -0.20154 h 0.2191084 z m -0.012402,1.34772 H 5.8572981 v -1.15445 h 0.1943037 z"
         id="path1383" />
      <path
         d="m 7.289771,120.29721 q -0.097152,0.0465 -0.1850019,0.0723 -0.086817,0.0258 -0.185002,0.0258 -0.1250571,0 -0.2294437,-0.0362 -0.1043865,-0.0372 -0.1788007,-0.11162 -0.075448,-0.0744 -0.1167889,-0.18811 -0.041341,-0.11369 -0.041341,-0.26561 0,-0.28319 0.1550295,-0.44442 0.1560631,-0.16123 0.411345,-0.16123 0.099219,0 0.1943037,0.0279 0.096118,0.0279 0.1757002,0.0682 v 0.216 h -0.010335 q -0.088884,-0.0692 -0.1839684,-0.10645 -0.094051,-0.0372 -0.1839684,-0.0372 -0.1653648,0 -0.2614831,0.11162 -0.095085,0.11059 -0.095085,0.32557 0,0.20877 0.093018,0.32142 0.094051,0.11162 0.2635502,0.11162 0.058911,0 0.1198895,-0.0155 0.060978,-0.0155 0.1095542,-0.0403 0.042375,-0.0217 0.079582,-0.0455 0.037207,-0.0248 0.058911,-0.0424 h 0.010335 z"
         id="path1385" />
      <path
         d="M 8.5052023,119.81248 H 7.6546069 q 0,0.10645 0.032039,0.18603 0.032039,0.0786 0.08785,0.1292 0.053744,0.0496 0.1271242,0.0744 0.074414,0.0248 0.1632978,0.0248 0.1178225,0 0.2366784,-0.0465 0.1198895,-0.0476 0.1705325,-0.093 h 0.010335 v 0.21187 q -0.098185,0.0413 -0.2005048,0.0692 -0.1023195,0.0279 -0.2149743,0.0279 -0.2873214,0 -0.4485521,-0.15503 -0.1612308,-0.15606 -0.1612308,-0.44235 0,-0.28318 0.153996,-0.44958 0.1550296,-0.1664 0.407211,-0.1664 0.2335778,0 0.3596685,0.13643 0.1271242,0.13642 0.1271242,0.38757 z m -0.189136,-0.14883 q -0.00103,-0.15296 -0.077515,-0.23668 -0.075448,-0.0837 -0.2304772,-0.0837 -0.1560631,0 -0.2490808,0.092 -0.091984,0.092 -0.1043866,0.22841 z"
         id="path1387" />
    </g>
  </g>
  <g
     inkscape:groupmode="layer"
     id="layer2"
     inkscape:label="components">
    <circle
       style="fill:#0000ff;stroke-width:0.264583"
       id="circle530"
       cx="5.08"
       cy="109.23225"
       r="2.2803071"
       inkscape:label="gate output" />
    <circle
       style="fill:#00ff00;stroke-width:0.264583"
       id="path526"
       cx="5.08"
       cy="20.967701"
       r="2.2803071"
       inkscape:label="start input" />
    <circle
       style="fill:#00ff00;stroke-width:0.264583"
       id="circle528"
       cx="5.08"
       cy="33.648434"
       r="2.2803071"
       inkscape:label="stop input" />
    <circle
       style="fill:#ff00ff;stroke-width:0.264583"
       id="path748"
       cx="5.08"
       cy="102.39134"
       r="0.83425868"
       inkscape:label="gate light" />
    <circle
       style="fill:#ff00ff;stroke-width:0.264583"
       id="path750"
       cx="5.08"
       cy="27.919857"
       r="0.55617243"
       inkscape:label="stop light" />
    <circle
       style="fill:#ff00ff;stroke-width:0.264583"
       id="path752"
       cx="5.08"
       cy="15.350359"
       r="0.55617243"
       inkscape:label="start light" />
  </g>
</svg>
